<?xml version="1.0" encoding="UTF-8"?>
<svg width="98px" height="18px" viewBox="0 0 98 18" version="1.1" xmlns="http://www.w3.org/2000/svg" xmlns:xlink="http://www.w3.org/1999/xlink">
    <title>FILECAT</title>
    <g id="Page-1" stroke="none" stroke-width="1" fill="none" fill-rule="evenodd">
        <g id="default-text" fill="#FFFFFF" fill-rule="nonzero">
            <path d="M0,17 L0,0 L12,0 L12,3.2135642 L4.0344828,3.2135642 L4.0344828,6.7705628 L11.1206897,6.7705628 L11.1206897,9.984127 L4.0344828,9.984127 L4.0344828,17 L0,17 Z M14,0 L18,0 L18,17 L14,17 L14,0 Z M34,13.7128427 L34,17 L22,17 L22,0 L26.0431965,0 L26.0431965,13.7128427 L34,13.7128427 Z M36,17 L36,0 L47.437882,0 L47.437882,3.2135642 L39.812627,3.2135642 L39.812627,6.5497835 L46.582485,6.5497835 L46.582485,9.6897547 L39.812627,9.6897547 L39.812627,13.7864358 L48,13.7864358 L48,17 L36,17 Z M58.380623,18 C55.651659,18 53.572672,17.2199248 52.143599,15.659751 C50.714526,14.0995773 50,11.8838318 50,9.0124481 C50,7.5850551 50.217991,6.3112089 50.653979,5.1908714 C51.089968,4.0705338 51.687424,3.1244852 52.446367,2.3526971 C53.205309,1.580909 54.109568,0.9958526 55.15917,0.5975104 C56.208771,0.1991681 57.347168,0 58.574394,0 C59.284894,0 59.930793,0.0539414 60.512111,0.1618257 C61.093429,0.2697101 61.602074,0.3941902 62.038062,0.5352697 C62.474051,0.6763493 62.837369,0.821576 63.128028,0.9709544 C63.418687,1.1203327 63.628604,1.2365141 63.757785,1.3195021 L62.66782,4.4564315 C62.151093,4.1742724 61.5496,3.933611 60.863322,3.7344398 C60.177044,3.5352687 59.397928,3.4356846 58.525952,3.4356846 C57.944634,3.4356846 57.375435,3.5352687 56.818339,3.7344398 C56.261243,3.933611 55.768745,4.2531098 55.34083,4.6929461 C54.912916,5.1327823 54.569782,5.7012413 54.311419,6.3983402 C54.053055,7.0954392 53.923875,7.9419037 53.923875,8.9377593 C53.923875,9.7344438 54.00865,10.477175 54.178201,11.1659751 C54.347752,11.8547752 54.622259,12.4481303 55.00173,12.9460581 C55.381201,13.4439859 55.877736,13.8381728 56.491349,14.1286307 C57.104963,14.4190886 57.847747,14.5643154 58.719723,14.5643154 C59.268746,14.5643154 59.761243,14.5311207 60.197232,14.4647303 C60.63322,14.3983399 61.02076,14.3195025 61.359862,14.2282158 C61.698964,14.136929 61.997692,14.0331956 62.256055,13.9170124 C62.514419,13.8008293 62.748557,13.6929466 62.958478,13.593361 L64,16.7053942 C63.467125,17.0373461 62.716268,17.3360983 61.747405,17.6016598 C60.778542,17.8672212 59.656292,18 58.380623,18 Z M78.950071,17 C78.772229,16.4112525 78.574181,15.8061599 78.35592,15.1847042 C78.137659,14.5632485 77.923444,13.941802 77.713267,13.3203463 L71.165478,13.3203463 C70.955301,13.941802 70.741085,14.5632485 70.522825,15.1847042 C70.304564,15.8061599 70.106515,16.4112525 69.928673,17 L66,17 C66.630531,15.168341 67.228718,13.4757172 67.794579,11.9220779 C68.36044,10.3684386 68.914168,8.9047688 69.455777,7.5310245 C69.997387,6.1572803 70.530906,4.8530605 71.056348,3.6183261 C71.581791,2.3835917 72.127434,1.1774951 72.693295,0 L76.306705,0 C76.856398,1.1774951 77.398,2.3835917 77.931526,3.6183261 C78.465053,4.8530605 79.002613,6.1572803 79.544223,7.5310245 C80.085832,8.9047688 80.63956,10.3684386 81.205421,11.9220779 C81.771282,13.4757172 82.369469,15.168341 83,17 L78.950071,17 Z M74.48731,4 C74.402707,4.2671769 74.275805,4.6323132 74.106599,5.0954198 C73.937393,5.5585265 73.74281,6.0928723 73.522843,6.6984733 C73.302875,7.3040743 73.061761,7.9720065 72.799492,8.7022901 C72.537224,9.4325736 72.270729,10.1984693 72,11 L77,11 C76.729271,10.1984693 76.467006,9.4325736 76.213198,8.7022901 C75.95939,7.9720065 75.718275,7.3040743 75.489848,6.6984733 C75.26142,6.0928723 75.062607,5.5585265 74.893401,5.0954198 C74.724195,4.6323132 74.588833,4.2671769 74.48731,4 Z M98,0 L98,3.2626263 L92.902439,3.2626263 L92.902439,17 L89.097561,17 L89.097561,3.2626263 L84,3.2626263 L84,0 L98,0 Z" id="FILECAT"></path>
        </g>
    </g>
</svg>
